<?xml version="1.0" encoding="UTF-8" standalone="no"?>
<!-- Created with Inkscape (http://www.inkscape.org/) -->

<svg
   width="210mm"
   height="210mm"
   viewBox="0 0 210 210"
   version="1.1"
   id="svg21"
   xml:space="preserve"
   inkscape:version="1.2.2 (b0a8486541, 2022-12-01)"
   sodipodi:docname="logo2.svg"
   xmlns:inkscape="http://www.inkscape.org/namespaces/inkscape"
   xmlns:sodipodi="http://sodipodi.sourceforge.net/DTD/sodipodi-0.dtd"
   xmlns="http://www.w3.org/2000/svg"
   xmlns:svg="http://www.w3.org/2000/svg"><sodipodi:namedview
     id="namedview23"
     pagecolor="#ffffff"
     bordercolor="#000000"
     borderopacity="0.25"
     inkscape:showpageshadow="2"
     inkscape:pageopacity="0.0"
     inkscape:pagecheckerboard="0"
     inkscape:deskcolor="#d1d1d1"
     inkscape:document-units="mm"
     showgrid="false"
     inkscape:zoom="1.0595392"
     inkscape:cx="519.56549"
     inkscape:cy="421.40961"
     inkscape:window-width="1920"
     inkscape:window-height="997"
     inkscape:window-x="1920"
     inkscape:window-y="0"
     inkscape:window-maximized="1"
     inkscape:current-layer="layer1" /><defs
     id="defs18" /><g
     inkscape:label="Layer 1"
     inkscape:groupmode="layer"
     id="layer1"><g
       id="g45"
       transform="matrix(0.26458333,0,0,0.26458333,37.081902,37.788193)">
	<rect
   x="86.510834"
   class="st0"
   width="48.430538"
   height="105.93478"
   id="rect11"
   y="-122.31742"
   style="fill:#6366f1;fill-opacity:1;stroke-width:1.4778" />
	<rect
   x="183.37044"
   class="st0"
   width="48.415764"
   height="105.93478"
   id="rect13"
   y="-122.31742"
   style="fill:#6366f1;fill-opacity:1;stroke-width:1.4778" />
	<rect
   x="280.21524"
   class="st0"
   width="48.415764"
   height="105.93478"
   id="rect15"
   y="-122.31742"
   style="fill:#6366f1;fill-opacity:1;stroke-width:1.4778" />
	<rect
   x="377.06009"
   class="st0"
   width="48.430538"
   height="105.93478"
   id="rect17"
   y="-122.31742"
   style="fill:#6366f1;fill-opacity:1;stroke-width:1.4778" />
	<rect
   x="86.510834"
   y="528.39447"
   class="st0"
   width="48.430538"
   height="105.92297"
   id="rect19"
   style="fill:#6366f1;fill-opacity:1;stroke-width:1.4778" />
	<rect
   x="183.37044"
   y="528.39447"
   class="st0"
   width="48.415764"
   height="105.92297"
   id="rect21"
   style="fill:#6366f1;fill-opacity:1;stroke-width:1.4778" />
	<rect
   x="280.21524"
   y="528.39447"
   class="st0"
   width="48.415764"
   height="105.92297"
   id="rect23"
   style="fill:#6366f1;fill-opacity:1;stroke-width:1.4778" />
	<rect
   x="377.06009"
   y="528.39447"
   class="st0"
   width="48.430538"
   height="105.92297"
   id="rect25"
   style="fill:#6366f1;fill-opacity:1;stroke-width:1.4778" />
	<rect
   x="528.39447"
   y="86.509369"
   class="st0"
   width="105.92297"
   height="48.430538"
   id="rect27"
   style="fill:#6366f1;fill-opacity:1;stroke-width:1.4778" />
	<rect
   x="528.39447"
   y="183.37044"
   class="st0"
   width="105.92297"
   height="48.415764"
   id="rect29"
   style="fill:#6366f1;fill-opacity:1;stroke-width:1.4778" />
	<rect
   x="528.39447"
   y="280.21381"
   class="st0"
   width="105.92297"
   height="48.415764"
   id="rect31"
   style="fill:#6366f1;fill-opacity:1;stroke-width:1.4778" />
	<rect
   x="528.39447"
   y="377.06009"
   class="st0"
   width="105.92297"
   height="48.430538"
   id="rect33"
   style="fill:#6366f1;fill-opacity:1;stroke-width:1.4778" />
	<rect
   y="86.509369"
   class="st0"
   width="105.93626"
   height="48.430538"
   id="rect35"
   x="-122.31742"
   style="fill:#6366f1;fill-opacity:1;stroke-width:1.4778" />
	<rect
   y="183.37044"
   class="st0"
   width="105.93626"
   height="48.415764"
   id="rect37"
   x="-122.31742"
   style="fill:#6366f1;fill-opacity:1;stroke-width:1.4778" />
	<rect
   y="280.21381"
   class="st0"
   width="105.93626"
   height="48.415764"
   id="rect39"
   x="-122.31742"
   style="fill:#6366f1;fill-opacity:1;stroke-width:1.4778" />
	<rect
   y="377.06009"
   class="st0"
   width="105.93626"
   height="48.430538"
   id="rect41"
   x="-122.31742"
   style="fill:#6366f1;fill-opacity:1;stroke-width:1.4778" />
	<path
   id="path43"
   style="fill:#6366f1;fill-opacity:1;stroke-width:1.4778"
   class="st0"
   d="M 13.878471,13.879142 V 498.13364 H 498.13585 V 13.879142 Z M 362.19246,52.457869 c 3.55772,-0.08332 7.13859,0.02551 10.7285,0.334811 3.26364,0.282142 6.05494,2.422561 7.1812,5.495577 1.11483,3.066913 0.36023,6.508626 -1.95405,8.820633 l -47.28968,47.28968 16.5993,52.42158 52.42447,16.5993 47.28679,-47.2868 c 2.31124,-2.30742 5.75127,-3.07072 8.82352,-1.94827 3.06462,1.11559 5.20919,3.91288 5.48981,7.16966 2.47746,28.71549 -7.78385,56.85966 -28.12443,77.2094 -27.88891,27.88509 -68.60658,35.24591 -103.30186,22.15549 -1.17812,1.45187 -2.42945,2.86496 -3.77533,4.21692 L 178.63035,404.0161 c -0.0732,0.0831 -0.14796,0.15907 -0.22801,0.23378 -18.56085,18.56465 -48.54609,18.79115 -67.11302,0.22803 -18.563878,-18.5677 -18.563878,-48.77351 0,-67.33815 0.0602,-0.0534 0.11751,-0.11326 0.17318,-0.16741 L 269.31315,188.02026 c 1.39011,-1.37484 2.80026,-2.64998 4.22848,-3.85325 -13.06677,-34.68614 -5.6888,-75.37734 22.1757,-103.244125 17.80202,-17.804682 41.57116,-27.881846 66.47513,-28.465016 z M 91.428464,70.624449 c 12.545046,0 22.709666,10.160246 22.709666,22.706774 0,12.516967 -10.16462,22.692347 -22.709666,22.692347 -12.528794,0 -22.692351,-10.17685 -22.692351,-22.692347 0,-12.54505 10.163557,-22.706774 22.692351,-22.706774 z m 329.140086,0 c 12.53175,0 22.70967,10.160246 22.70967,22.706774 0,12.528797 -10.17792,22.692347 -22.70967,22.692347 -12.5288,0 -22.68947,-10.16355 -22.68947,-22.692347 0,-12.54505 10.16067,-22.706774 22.68947,-22.706774 z M 142.23658,354.53858 c -4.47979,0 -8.95952,1.70882 -12.37948,5.12612 -6.83764,6.83536 -6.83764,17.92591 0,24.75897 6.83992,6.83459 17.91827,6.83917 24.75896,0 6.83764,-6.83306 6.83764,-17.92361 0,-24.75897 -3.42035,-3.4173 -7.89968,-5.12612 -12.37948,-5.12612 z m -50.808116,45.22883 c 12.545046,0 22.709666,10.16173 22.709666,22.70678 0,12.51551 -10.16462,22.69235 -22.709666,22.69235 -12.528794,0 -22.692351,-10.17684 -22.692351,-22.69235 0,-12.54653 10.163557,-22.70678 22.692351,-22.70678 z m 329.140086,0 c 12.53175,0 22.70967,10.16173 22.70967,22.70678 0,12.52881 -10.17792,22.69235 -22.70967,22.69235 -12.5288,0 -22.68947,-10.16354 -22.68947,-22.69235 0,-12.54653 10.16067,-22.70678 22.68947,-22.70678 z" />
<g
   style="fill:#000000"
   id="g4247"
   transform="matrix(0.51599214,0,0,0.51599214,148.19052,118.24827)"><g
     id="g4238">
	
</g></g></g></g><style
     type="text/css"
     id="style9">
	.st0{fill:#000000;}
</style></svg>
